# xmcd
#
# Track frame offsets:
#	150
#	14826
#	52473
#
# Disc length: 950 seconds
#
# Revision: 1
# Processed by: cddbd v1.5.2PL0 Copyright (c) Steve Scherf et al.
# Submitted via: audiograbber 1.83.01
#
DISCID=2b03b403
DTITLE=F2F - Can't Hide [CDM)
DYEAR=2002
DGENRE=Dance
TTITLE0=Can't Hide
TTITLE1=Can't Hide (Super-8 Remix)
TTITLE2=Can't Hide (Extended)
EXTD=TR.
EXTT0=
EXTT1=
EXTT2=
PLAYORDER=
